# xmcd
#
# Track frame offsets:
#	150
#	18684
#	34290
#	57108
#
# Disc length: 974 seconds
#
# Revision: 0
# Processed by: cddbd v1.5.2PL0 Copyright (c) Steve Scherf et al.
# Submitted via: EZCDAudioConverter 7.1.6.1
#
DISCID=2f03cc04
DTITLE=Joe Robinson - Gemini 2
DYEAR=2015
DGENRE=10s
TTITLE0=Flaming Arches
TTITLE1=Baptized
TTITLE2=The Spiral
TTITLE3=String In The Eye
EXTD=
EXTT0=
EXTT1=
EXTT2=
EXTT3=
PLAYORDER=
